<!-- EP.21 · 原生造好的轮子 — dialog/Popover/inert/template/资源提示（HTML 篇完结），规范见 ../style-guide.md -->
<svg xmlns="http://www.w3.org/2000/svg" viewBox="0 0 1200 840">
  <defs>
    <style>
      .t{font-family:'PingFang SC','Hiragino Sans GB','Microsoft YaHei',sans-serif;}
      .m{font-family:'SFMono-Regular',Menlo,Consolas,monospace;}
      .st{font-size:15px;fill:#94a3b8;}
      .bt{font-size:30px;font-weight:bold;fill:#f8fafc;}
      .pt{font-size:19px;font-weight:bold;fill:#f8fafc;}
      .an{font-size:12.5px;fill:#94a3b8;}
      .kt{font-size:20px;font-weight:bold;fill:#451a03;}
      .kb{font-size:15px;fill:#451a03;}
      .ft{font-size:12.5px;fill:#64748b;}
    </style>
    <pattern id="ht" width="14" height="14" patternUnits="userSpaceOnUse">
      <circle cx="3" cy="3" r="1.8" fill="#f8fafc" opacity="0.05"/>
    </pattern>
    <g id="pixelv2">
      <ellipse cx="0" cy="0" rx="46" ry="9" fill="#020617" opacity="0.5"/>
      <rect x="-24" y="-8" width="18" height="9" rx="4" fill="#f8fafc" stroke="#0b1220" stroke-width="2.5"/>
      <rect x="6" y="-8" width="18" height="9" rx="4" fill="#f8fafc" stroke="#0b1220" stroke-width="2.5"/>
      <rect x="-18" y="-30" width="11" height="24" fill="#f8d8bf" stroke="#0b1220" stroke-width="2"/>
      <rect x="7" y="-30" width="11" height="24" fill="#f8d8bf" stroke="#0b1220" stroke-width="2"/>
      <path d="M 30 -128 Q 58 -120 54 -92 Q 51 -74 38 -70 Q 48 -86 42 -100 Q 38 -114 26 -120 Z" fill="#22d3ee" stroke="#0b1220" stroke-width="3"/>
      <circle cx="29" cy="-124" r="5" fill="#fbbf24" stroke="#0b1220" stroke-width="2"/>
      <path d="M -32 -84 L 32 -84 L 26 -26 L -26 -26 Z" fill="#f472b6" stroke="#0b1220" stroke-width="3" stroke-linejoin="round"/>
      <path d="M -26 -34 L 26 -34" stroke="#db2777" stroke-width="2"/>
      <path d="M -6 -80 L -9 -64" stroke="#f8fafc" stroke-width="2.5" stroke-linecap="round"/>
      <path d="M 6 -80 L 9 -64" stroke="#f8fafc" stroke-width="2.5" stroke-linecap="round"/>
      <circle cx="-9" cy="-62" r="2" fill="#f8fafc"/>
      <circle cx="9" cy="-62" r="2" fill="#f8fafc"/>
      <rect x="-14" y="-60" width="28" height="14" rx="4" fill="#22d3ee" stroke="#0b1220" stroke-width="2"/>
      <text class="m" x="0" y="-50" text-anchor="middle" font-size="9" font-weight="bold" fill="#0b1220">CSS</text>
      <rect x="-46" y="-72" width="14" height="36" rx="7" fill="#f472b6" stroke="#0b1220" stroke-width="2.5"/>
      <rect x="30" y="-106" width="14" height="34" rx="7" fill="#f472b6" stroke="#0b1220" stroke-width="2.5" transform="rotate(-55 37 -89)"/>
      <circle cx="0" cy="-106" r="31" fill="#ffdfc8" stroke="#0b1220" stroke-width="3"/>
      <path d="M -33 -104 Q -35 -142 0 -142 Q 35 -142 33 -104 L 33 -96 Q 17 -110 0 -110 Q -17 -110 -33 -96 Z" fill="#22d3ee" stroke="#0b1220" stroke-width="3"/>
      <path d="M -33 -114 L -39 -76 Q -33 -68 -26 -78 Z" fill="#22d3ee" stroke="#0b1220" stroke-width="2"/>
      <path d="M 33 -114 L 39 -76 Q 33 -68 26 -78 Z" fill="#22d3ee" stroke="#0b1220" stroke-width="2"/>
      <path d="M 8 -140 Q 20 -124 17 -108 L 24 -111 Q 27 -128 19 -138 Z" fill="#a78bfa" stroke="#0b1220" stroke-width="2"/>
      <path d="M -19 -130 Q -25 -123 -19 -116" stroke="#fbbf24" stroke-width="3" fill="none" stroke-linecap="round"/>
      <ellipse cx="-12" cy="-108" rx="4.5" ry="6" fill="#0b1220"/>
      <ellipse cx="12" cy="-108" rx="4.5" ry="6" fill="#0b1220"/>
      <circle cx="-13.5" cy="-110.5" r="1.8" fill="#ffffff"/>
      <circle cx="10.5" cy="-110.5" r="1.8" fill="#ffffff"/>
      <path d="M -18 -118 Q -12 -121 -6 -119" stroke="#0b1220" stroke-width="2.2" fill="none" stroke-linecap="round"/>
      <path d="M 18 -118 Q 12 -121 6 -119" stroke="#0b1220" stroke-width="2.2" fill="none" stroke-linecap="round"/>
      <circle cx="-20" cy="-100" r="4" fill="#fb7185" opacity="0.55"/>
      <circle cx="20" cy="-100" r="4" fill="#fb7185" opacity="0.55"/>
      <path d="M -9 -94 Q 0 -83 9 -94" stroke="#0b1220" stroke-width="3" fill="none" stroke-linecap="round"/>
    </g>
    <g id="taggyv2">
      <ellipse cx="0" cy="0" rx="42" ry="8" fill="#020617" opacity="0.5"/>
      <rect x="-26" y="-8" width="20" height="10" rx="5" fill="#f8fafc" stroke="#0b1220" stroke-width="2.5"/>
      <rect x="6" y="-8" width="20" height="10" rx="5" fill="#f8fafc" stroke="#0b1220" stroke-width="2.5"/>
      <rect x="-21" y="-24" width="13" height="18" fill="#c2410c" stroke="#0b1220" stroke-width="2"/>
      <rect x="8" y="-24" width="13" height="18" fill="#c2410c" stroke="#0b1220" stroke-width="2"/>
      <rect x="-34" y="-78" width="68" height="60" rx="14" fill="#fb923c" stroke="#0b1220" stroke-width="3"/>
      <polygon points="-13,-70 13,-70 10,-48 0,-44 -10,-48" fill="#0b1220" stroke="#0b1220" stroke-width="2"/>
      <text class="m" x="0" y="-52" text-anchor="middle" font-size="11" font-weight="bold" fill="#fbbf24">5</text>
      <rect x="-34" y="-26" width="68" height="8" fill="#c2410c" stroke="#0b1220" stroke-width="2"/>
      <rect x="-6" y="-27" width="12" height="10" rx="2" fill="#fbbf24" stroke="#0b1220" stroke-width="2"/>
      <rect x="-48" y="-68" width="14" height="34" rx="7" fill="#fb923c" stroke="#0b1220" stroke-width="2.5"/>
      <circle cx="-41" cy="-66" r="5" fill="#fdba74" stroke="#0b1220" stroke-width="2"/>
      <rect x="32" y="-71" width="34" height="13" rx="6.5" fill="#fb923c" stroke="#0b1220" stroke-width="2.5" transform="rotate(-20 32 -65)"/>
      <circle cx="38" cy="-64" r="5" fill="#fdba74" stroke="#0b1220" stroke-width="2"/>
      <rect x="-30" y="-128" width="60" height="46" rx="13" fill="#fdba74" stroke="#0b1220" stroke-width="3"/>
      <rect x="-36" y="-112" width="8" height="18" rx="3" fill="#fb923c" stroke="#0b1220" stroke-width="2"/>
      <rect x="28" y="-112" width="8" height="18" rx="3" fill="#fb923c" stroke="#0b1220" stroke-width="2"/>
      <rect x="-23" y="-118" width="46" height="22" rx="8" fill="#0b1220"/>
      <text class="m" x="-10" y="-102" text-anchor="middle" font-size="16" font-weight="bold" fill="#22d3ee">&lt;</text>
      <text class="m" x="10" y="-102" text-anchor="middle" font-size="16" font-weight="bold" fill="#22d3ee">&gt;</text>
      <circle cx="-6" cy="-90" r="1.5" fill="#0b1220"/>
      <circle cx="0" cy="-90" r="1.5" fill="#0b1220"/>
      <circle cx="6" cy="-90" r="1.5" fill="#0b1220"/>
      <line x1="0" y1="-128" x2="0" y2="-142" stroke="#0b1220" stroke-width="3"/>
      <circle cx="0" cy="-147" r="9" fill="none" stroke="#fbbf24" stroke-width="1.5" opacity="0.4"/>
      <circle cx="0" cy="-147" r="5.5" fill="#fbbf24" stroke="#0b1220" stroke-width="2"/>
    </g>
    <g id="moov2">
      <ellipse cx="0" cy="68" rx="48" ry="7" fill="#020617" opacity="0.5"/>
      <line x1="-9" y1="60" x2="-9" y2="66" stroke="#78350f" stroke-width="3.5" stroke-linecap="round"/>
      <line x1="9" y1="60" x2="9" y2="66" stroke="#78350f" stroke-width="3.5" stroke-linecap="round"/>
      <ellipse cx="0" cy="12" rx="30" ry="22" fill="#b45309" stroke="#78350f" stroke-width="3"/>
      <ellipse cx="0" cy="16" rx="17" ry="13" fill="#fde68a"/>
      <path d="M -30 18 L 30 18 L 38 52 Q 0 60 -38 52 Z" fill="#1e293b" stroke="#0b1220" stroke-width="2.5"/>
      <line x1="0" y1="22" x2="0" y2="54" stroke="#334155" stroke-width="2"/>
      <path d="M -30 2 Q -46 12 -37 28 Q -30 20 -28 6 Z" fill="#92400e" stroke="#78350f" stroke-width="2.5"/>
      <path d="M 30 -4 Q 44 -14 40 -28 Q 30 -22 26 -8 Z" fill="#92400e" stroke="#78350f" stroke-width="2.5"/>
      <line x1="40" y1="-28" x2="56" y2="-56" stroke="#b45309" stroke-width="3.5" stroke-linecap="round"/>
      <circle cx="56" cy="-56" r="3.5" fill="#fbbf24" stroke="#78350f" stroke-width="1.5"/>
      <polygon points="-9,10 0,6 0,14" fill="#f472b6" stroke="#0b1220" stroke-width="1.5"/>
      <polygon points="9,10 0,6 0,14" fill="#f472b6" stroke="#0b1220" stroke-width="1.5"/>
      <circle cx="0" cy="10" r="2.5" fill="#db2777"/>
      <circle cx="0" cy="-26" r="33" fill="#f59e0b" stroke="#78350f" stroke-width="3"/>
      <polygon points="-27,-50 0,-62 27,-50 0,-42" fill="#1e293b" stroke="#0b1220" stroke-width="2"/>
      <circle cx="0" cy="-62" r="2.5" fill="#fbbf24"/>
      <path d="M 27 -50 L 33 -34" stroke="#fbbf24" stroke-width="2"/>
      <circle cx="33" cy="-31" r="3" fill="#fbbf24"/>
      <circle cx="-12" cy="-30" r="12.5" fill="#fffbeb" stroke="#78350f" stroke-width="2"/>
      <circle cx="12" cy="-30" r="12.5" fill="#fffbeb" stroke="#78350f" stroke-width="2"/>
      <line x1="-1" y1="-30" x2="1" y2="-30" stroke="#78350f" stroke-width="2"/>
      <line x1="-24.5" y1="-30" x2="-30" y2="-32" stroke="#78350f" stroke-width="2"/>
      <line x1="24.5" y1="-30" x2="30" y2="-32" stroke="#78350f" stroke-width="2"/>
      <circle cx="-12" cy="-30" r="4.5" fill="#0b1220"/>
      <circle cx="12" cy="-30" r="4.5" fill="#0b1220"/>
      <circle cx="-13.5" cy="-32" r="1.5" fill="#ffffff"/>
      <circle cx="10.5" cy="-32" r="1.5" fill="#ffffff"/>
      <polygon points="0,-14 -6,-22 6,-22" fill="#f97316" stroke="#78350f" stroke-width="2"/>
    </g>
  </defs>

  <rect x="0" y="0" width="1200" height="840" fill="#0b1220"/>

  <!-- ===== 顶部横幅 ===== -->
  <rect x="40" y="6" width="120" height="6" rx="3" fill="#fbbf24"/>
  <rect x="40" y="16" width="120" height="6" rx="3" fill="#fb923c"/>
  <text class="t st" x="40" y="40">前端漫画实验室 · CSS3 × HTML5 漫画剧场 · HTML 篇完结</text>
  <text class="t bt" x="40" y="80">第 21 话 · 原生造好的轮子 — 少写一千行</text>
  <rect x="1020" y="26" width="140" height="44" rx="22" fill="#fbbf24"/>
  <text class="m" x="1090" y="54" text-anchor="middle" font-size="18" font-weight="bold" fill="#0b1220">EP.21 FIN</text>
  <line x1="0" y1="96" x2="1200" y2="96" stroke="#1e293b" stroke-width="2"/>

  <!-- ===== 格1 · 痛点现场 ===== -->
  <rect x="40" y="120" width="556" height="250" rx="16" fill="#131c2e" stroke="#334155" stroke-width="3"/>
  <rect x="40" y="120" width="556" height="250" rx="16" fill="url(#ht)"/>
  <circle cx="66" cy="146" r="14" fill="#fbbf24"/>
  <text class="m" x="66" y="151" text-anchor="middle" font-size="15" font-weight="bold" fill="#0b1220">1</text>
  <text class="t pt" x="92" y="152">痛点现场 · 手写弹层的三座大山</text>

  <rect x="64" y="178" width="200" height="104" rx="10" fill="#1e293b" stroke="#f87171" stroke-width="2"/>
  <text class="t" x="80" y="204" font-size="12.5" font-weight="bold" fill="#fca5a5">手写模态框</text>
  <text class="t an" x="80" y="228" font-size="11.5">① 遮罩层 + 滚动锁</text>
  <text class="t an" x="80" y="248" font-size="11.5">② Tab 焦点陷阱/归还</text>
  <text class="t an" x="80" y="268" font-size="11.5">③ ESC、aria-modal…</text>

  <rect x="288" y="178" width="222" height="104" rx="10" fill="#0b1220" stroke="#f87171" stroke-width="2"/>
  <text class="t" x="304" y="204" font-size="12.5" font-weight="bold" fill="#fca5a5">手写浮层 + 拼接渲染</text>
  <text class="t an" x="304" y="228" font-size="11.5">Popper 算定位、点外关闭</text>
  <text class="m" x="304" y="250" font-size="10.5" fill="#fca5a5">innerHTML += 用户数据</text>
  <text class="t an" x="304" y="270" font-size="11.5">一行 img onerror 就是 XSS</text>

  <text class="t" x="64" y="312" font-size="14" font-weight="bold" fill="#f87171">z-index 大战、overflow 裁切、焦点跑丢轮番上演</text>
  <text class="t an" x="64" y="338">这些样板每个项目重写一遍，质量还参差不齐</text>
  <use href="#pixelv2" transform="translate(524,352) scale(0.55)"/>
  <circle cx="556" cy="272" r="12" fill="#f87171"/>
  <text class="t" x="556" y="277" text-anchor="middle" font-size="15" font-weight="bold" fill="#0b1220">!</text>

  <!-- ===== 格2 · 机制登场 ===== -->
  <rect x="616" y="120" width="544" height="250" rx="16" fill="#131c2e" stroke="#334155" stroke-width="3"/>
  <rect x="616" y="120" width="544" height="250" rx="16" fill="url(#ht)"/>
  <circle cx="642" cy="146" r="14" fill="#a78bfa"/>
  <text class="m" x="642" y="151" text-anchor="middle" font-size="15" font-weight="bold" fill="#0b1220">2</text>
  <text class="t pt" x="668" y="152">机制登场 · Top Layer 弹层三件套</text>

  <rect x="636" y="176" width="166" height="152" rx="10" fill="#1e293b" stroke="#22d3ee" stroke-width="2"/>
  <text class="m" x="719" y="202" text-anchor="middle" font-size="14" font-weight="bold" fill="#67e8f9">&lt;dialog&gt;</text>
  <text class="t an" x="652" y="228" font-size="11">showModal 进顶层</text>
  <text class="t an" x="652" y="248" font-size="11">焦点陷阱 + 自动归还</text>
  <text class="t an" x="652" y="268" font-size="11">ESC / ::backdrop</text>
  <text class="t an" x="652" y="288" font-size="11">method=dialog 返值</text>
  <text class="t an" x="652" y="308" font-size="11">show() 非模态做侧栏</text>

  <rect x="814" y="176" width="166" height="152" rx="10" fill="#1e293b" stroke="#f472b6" stroke-width="2"/>
  <text class="t" x="897" y="202" text-anchor="middle" font-size="14" font-weight="bold" fill="#f9a8d4">Popover</text>
  <text class="m" x="830" y="228" font-size="10.5" fill="#cbd5e1">popovertarget 零 JS</text>
  <text class="t an" x="830" y="248" font-size="11">light dismiss 点外/ESC</text>
  <text class="t an" x="830" y="268" font-size="11">:popover-open 动画</text>
  <text class="t an" x="830" y="288" font-size="11">auto 单组互斥</text>
  <text class="t an" x="830" y="308" font-size="11">manual 给 Toast 堆叠</text>

  <rect x="992" y="176" width="148" height="152" rx="10" fill="#1e293b" stroke="#fbbf24" stroke-width="2"/>
  <text class="m" x="1066" y="202" text-anchor="middle" font-size="14" font-weight="bold" fill="#fcd34d">inert</text>
  <text class="t an" x="1008" y="228" font-size="11">一棵子树整体</text>
  <text class="t an" x="1008" y="248" font-size="11">不可点/不可聚焦</text>
  <text class="t an" x="1008" y="268" font-size="11">Tab 直接跳过</text>
  <text class="t an" x="1008" y="288" font-size="11">读屏器也不可见</text>
  <text class="t an" x="1008" y="308" font-size="11">模态背景一行锁死</text>

  <text class="t an" x="640" y="350">顶层脱离普通层叠上下文，z-index 999999 也盖不住、overflow 裁不掉</text>
  <use href="#taggyv2" transform="translate(1105,356) scale(0.44)"/>

  <!-- ===== 格3 · 落地收束 ===== -->
  <rect x="40" y="390" width="1120" height="230" rx="16" fill="#131c2e" stroke="#334155" stroke-width="3"/>
  <rect x="40" y="390" width="1120" height="230" rx="16" fill="url(#ht)"/>
  <circle cx="66" cy="416" r="14" fill="#fbbf24"/>
  <text class="m" x="66" y="421" text-anchor="middle" font-size="15" font-weight="bold" fill="#0b1220">3</text>
  <text class="t pt" x="92" y="422">落地收束 · 安全模板、资源提示与移动端键盘</text>

  <rect x="58" y="442" width="360" height="164" rx="10" fill="#0b1220" stroke="#334155" stroke-width="2"/>
  <text class="t" x="78" y="468" font-size="13" font-weight="bold" fill="#67e8f9">template 安全渲染列表</text>
  <text class="m" x="78" y="494" font-size="10.5" fill="#94a3b8">&lt;template&gt; 惰性不解析不加载</text>
  <text class="m" x="78" y="516" font-size="10.5" fill="#22d3ee">tpl.content.cloneNode(true)</text>
  <text class="m" x="78" y="538" font-size="10.5" fill="#22d3ee">el.textContent = userInput</text>
  <text class="t an" x="78" y="566" font-size="11">文本永远是文本，不被解析成标签</text>
  <text class="t an" x="78" y="588" font-size="11">data-* + 事件委托绑定行为</text>

  <rect x="434" y="442" width="360" height="164" rx="10" fill="#1e293b" stroke="#334155" stroke-width="2"/>
  <text class="t" x="454" y="468" font-size="13" font-weight="bold" fill="#f9a8d4">资源优化写对属性即可</text>
  <rect x="454" y="484" width="96" height="26" rx="13" fill="#0b1220" stroke="#22d3ee" stroke-width="1.2"/><text class="t" x="502" y="502" text-anchor="middle" font-size="10.5" fill="#67e8f9">dns-prefetch</text>
  <rect x="560" y="484" width="96" height="26" rx="13" fill="#0b1220" stroke="#22d3ee" stroke-width="1.2"/><text class="t" x="608" y="502" text-anchor="middle" font-size="10.5" fill="#67e8f9">preconnect</text>
  <rect x="666" y="484" width="80" height="26" rx="13" fill="#0b1220" stroke="#f472b6" stroke-width="1.2"/><text class="t" x="706" y="502" text-anchor="middle" font-size="10.5" fill="#f9a8d4">preload</text>
  <rect x="454" y="518" width="80" height="26" rx="13" fill="#0b1220" stroke="#f472b6" stroke-width="1.2"/><text class="t" x="494" y="536" text-anchor="middle" font-size="10.5" fill="#f9a8d4">prefetch</text>
  <rect x="544" y="518" width="112" height="26" rx="13" fill="#0b1220" stroke="#fbbf24" stroke-width="1.2"/><text class="t" x="600" y="536" text-anchor="middle" font-size="10.5" fill="#fcd34d">modulepreload</text>
  <text class="t an" x="454" y="572" font-size="11">loading=lazy / decoding=async 接近视口才拉</text>
  <text class="t an" x="454" y="594" font-size="11">width+height 预留宽高比，消灭 CLS</text>

  <rect x="810" y="442" width="330" height="164" rx="10" fill="#1e293b" stroke="#334155" stroke-width="2"/>
  <text class="t" x="830" y="468" font-size="13" font-weight="bold" fill="#fcd34d">移动端键盘少敲键</text>
  <rect x="830" y="486" width="290" height="40" rx="8" fill="#0b1220"/>
  <rect x="842" y="496" width="38" height="20" rx="4" fill="#1e293b"/><text class="t" x="861" y="510" text-anchor="middle" font-size="9" fill="#94a3b8">1</text>
  <rect x="884" y="496" width="38" height="20" rx="4" fill="#1e293b"/><text class="t" x="903" y="510" text-anchor="middle" font-size="9" fill="#94a3b8">2</text>
  <rect x="926" y="496" width="38" height="20" rx="4" fill="#22d3ee"/><text class="t" x="945" y="510" text-anchor="middle" font-size="9" fill="#0b1220">3</text>
  <rect x="1042" y="496" width="66" height="20" rx="4" fill="#1e293b"/><text class="t" x="1075" y="510" text-anchor="middle" font-size="9" fill="#22d3ee">搜索↵</text>
  <text class="m" x="830" y="552" font-size="10.5" fill="#22d3ee">inputmode="numeric|decimal"</text>
  <text class="m" x="830" y="572" font-size="10.5" fill="#22d3ee">enterkeyhint="search|go"</text>
  <text class="t an" x="830" y="596" font-size="11">只改键盘不改值类型；金额/验证码优先于 type=number</text>

  <!-- ===== 知识条 ===== -->
  <rect x="40" y="640" width="1120" height="152" rx="16" fill="#fbbf24" stroke="#78350f" stroke-width="3"/>
  <use href="#moov2" transform="translate(150,744) scale(0.62)"/>
  <text class="t kt" x="230" y="676">码叔划重点 · 完结篇</text>
  <circle cx="248" cy="703" r="4" fill="#b45309"/>
  <text class="t kb" x="266" y="708">showModal 内建焦点陷阱/ESC/遮罩且进顶层；Popover 零 JS + light dismiss；inert 一行锁背景</text>
  <circle cx="248" cy="731" r="4" fill="#b45309"/>
  <text class="t kb" x="266" y="736">template + cloneNode + textContent 渲染用户数据，结构与数据分离天然防 XSS</text>
  <circle cx="248" cy="759" r="4" fill="#b45309"/>
  <text class="t kb" x="266" y="764">能写属性解决的别写 JS：lazy/decoding、width/height 防 CLS、五类资源提示、inputmode</text>
  <rect x="992" y="700" width="148" height="32" rx="16" fill="none" stroke="#b45309" stroke-width="1.5"/>
  <text class="t" x="1066" y="721" text-anchor="middle" font-size="13" font-weight="bold" fill="#b45309">EP.21 · 全 21 话完</text>

  <text class="t ft" x="40" y="822">霓虹墨 Neon Ink · 第 21 话（HTML 篇完结）— 深入阅读 docs/html/10-pro-tips.md · 示例 examples/html/10-pro-tips</text>
</svg>
