<!-- 漫画角色设定表 v2 ·「霓虹墨 Neon Ink」风格规范见 ../style-guide.md -->
<!-- 量产时整组 <g> 复制后 translate/换表情即可；viewBox 0 0 1200 660 -->
<svg xmlns="http://www.w3.org/2000/svg" viewBox="0 0 1200 660">
  <defs>
    <style>
      .t{font-family:'PingFang SC','Hiragino Sans GB','Microsoft YaHei',sans-serif;}
      .m{font-family:'SFMono-Regular',Menlo,Consolas,monospace;}
      .h1{font-size:22px;font-weight:bold;fill:#f8fafc;}
      .cap{font-size:13px;fill:#94a3b8;}
      .nm{font-size:17px;font-weight:bold;fill:#0b1220;}
      .role{font-size:13.5px;fill:#cbd5e1;}
      .quote{font-size:13px;fill:#94a3b8;}
      .lab{font-size:12px;fill:#94a3b8;}
      .fcap{font-size:12px;fill:#94a3b8;}
      .vnote{font-size:12px;fill:#64748b;}
    </style>
  </defs>
  <rect x="0" y="0" width="1200" height="660" fill="#0b1220"/>
  <text class="t h1" x="40" y="44">角色设定 v2 · 优化稿</text>
  <text class="t cap" x="1160" y="44" text-anchor="end">马尾 · 盾徽 · 学士袍——剪影更立体</text>
  <line x1="0" y1="72" x2="1200" y2="72" stroke="#1e293b" stroke-width="2"/>

  <!-- ===== 像素酱 Pixel · CSS 造型师 ===== -->
  <rect x="40" y="96" width="360" height="540" rx="16" fill="#131c2e" stroke="#334155" stroke-width="3"/>
  <rect x="48" y="96" width="344" height="8" rx="4" fill="#22d3ee"/>
  <rect x="64" y="118" width="150" height="34" rx="17" fill="#22d3ee"/>
  <text class="t nm" x="139" y="141" text-anchor="middle">像素酱</text>
  <text class="m" x="228" y="141" font-size="12" fill="#94a3b8">PIXEL</text>
  <circle cx="300" cy="136" r="7" fill="#22d3ee" stroke="#0b1220" stroke-width="1.5"/>
  <circle cx="324" cy="136" r="7" fill="#a78bfa" stroke="#0b1220" stroke-width="1.5"/>
  <circle cx="348" cy="136" r="7" fill="#f472b6" stroke="#0b1220" stroke-width="1.5"/>
  <text class="t role" x="64" y="172">CSS 造型师 · 让元素又美又齐</text>
  <text class="t quote" x="64" y="194">「样式的事，交给我」</text>

  <g transform="translate(220,350)">
    <ellipse cx="0" cy="0" rx="46" ry="9" fill="#020617" opacity="0.5"/>
    <!-- 白帆布鞋 + 腿 -->
    <rect x="-24" y="-8" width="18" height="9" rx="4" fill="#f8fafc" stroke="#0b1220" stroke-width="2.5"/>
    <rect x="6" y="-8" width="18" height="9" rx="4" fill="#f8fafc" stroke="#0b1220" stroke-width="2.5"/>
    <rect x="-18" y="-30" width="11" height="24" fill="#f8d8bf" stroke="#0b1220" stroke-width="2"/>
    <rect x="7" y="-30" width="11" height="24" fill="#f8d8bf" stroke="#0b1220" stroke-width="2"/>
    <!-- 马尾（琥珀发绳在根部） -->
    <path d="M 30 -128 Q 58 -120 54 -92 Q 51 -74 38 -70 Q 48 -86 42 -100 Q 38 -114 26 -120 Z" fill="#22d3ee" stroke="#0b1220" stroke-width="3"/>
    <circle cx="29" cy="-124" r="5" fill="#fbbf24" stroke="#0b1220" stroke-width="2"/>
    <!-- 品红卫衣裙 + 抽绳 + CSS 徽章 -->
    <path d="M -32 -84 L 32 -84 L 26 -26 L -26 -26 Z" fill="#f472b6" stroke="#0b1220" stroke-width="3" stroke-linejoin="round"/>
    <path d="M -26 -34 L 26 -34" stroke="#db2777" stroke-width="2"/>
    <path d="M -6 -80 L -9 -64" stroke="#f8fafc" stroke-width="2.5" stroke-linecap="round"/>
    <path d="M 6 -80 L 9 -64" stroke="#f8fafc" stroke-width="2.5" stroke-linecap="round"/>
    <circle cx="-9" cy="-62" r="2" fill="#f8fafc"/>
    <circle cx="9" cy="-62" r="2" fill="#f8fafc"/>
    <rect x="-14" y="-60" width="28" height="14" rx="4" fill="#22d3ee" stroke="#0b1220" stroke-width="2"/>
    <text class="m" x="0" y="-50" text-anchor="middle" font-size="9" font-weight="bold" fill="#0b1220">CSS</text>
    <rect x="-46" y="-72" width="14" height="36" rx="7" fill="#f472b6" stroke="#0b1220" stroke-width="2.5"/>
    <rect x="30" y="-106" width="14" height="34" rx="7" fill="#f472b6" stroke="#0b1220" stroke-width="2.5" transform="rotate(-55 37 -89)"/>
    <!-- 头 + 青紫双色发 -->
    <circle cx="0" cy="-106" r="31" fill="#ffdfc8" stroke="#0b1220" stroke-width="3"/>
    <path d="M -33 -104 Q -35 -142 0 -142 Q 35 -142 33 -104 L 33 -96 Q 17 -110 0 -110 Q -17 -110 -33 -96 Z" fill="#22d3ee" stroke="#0b1220" stroke-width="3"/>
    <path d="M -33 -114 L -39 -76 Q -33 -68 -26 -78 Z" fill="#22d3ee" stroke="#0b1220" stroke-width="2"/>
    <path d="M 33 -114 L 39 -76 Q 33 -68 26 -78 Z" fill="#22d3ee" stroke="#0b1220" stroke-width="2"/>
    <path d="M 8 -140 Q 20 -124 17 -108 L 24 -111 Q 27 -128 19 -138 Z" fill="#a78bfa" stroke="#0b1220" stroke-width="2"/>
    <!-- 「{」CSS 发夹 -->
    <path d="M -19 -130 Q -25 -123 -19 -116" stroke="#fbbf24" stroke-width="3" fill="none" stroke-linecap="round"/>
    <!-- 高光眼 + 腮红 + 笑 -->
    <ellipse cx="-12" cy="-108" rx="4.5" ry="6" fill="#0b1220"/>
    <ellipse cx="12" cy="-108" rx="4.5" ry="6" fill="#0b1220"/>
    <circle cx="-13.5" cy="-110.5" r="1.8" fill="#ffffff"/>
    <circle cx="10.5" cy="-110.5" r="1.8" fill="#ffffff"/>
    <path d="M -18 -118 Q -12 -121 -6 -119" stroke="#0b1220" stroke-width="2.2" fill="none" stroke-linecap="round"/>
    <path d="M 18 -118 Q 12 -121 6 -119" stroke="#0b1220" stroke-width="2.2" fill="none" stroke-linecap="round"/>
    <circle cx="-20" cy="-100" r="4" fill="#fb7185" opacity="0.55"/>
    <circle cx="20" cy="-100" r="4" fill="#fb7185" opacity="0.55"/>
    <path d="M -9 -94 Q 0 -83 9 -94" stroke="#0b1220" stroke-width="3" fill="none" stroke-linecap="round"/>
  </g>
  <text class="t vnote" x="220" y="442" text-anchor="middle">v2：马尾动势 · 「{」发夹 · 白帆布鞋 · 高光眼</text>

  <line x1="64" y1="470" x2="376" y2="470" stroke="#334155" stroke-width="2"/>
  <text class="t lab" x="64" y="492">表情示范</text>
  <g transform="translate(120,540)">
    <circle cx="0" cy="0" r="30" fill="#ffdfc8" stroke="#0b1220" stroke-width="3"/>
    <path d="M -30 -2 Q -30 -32 0 -32 Q 30 -32 30 -2 L 30 4 Q 15 -8 0 -8 Q -15 -8 -30 4 Z" fill="#22d3ee" stroke="#0b1220" stroke-width="2.5"/>
    <ellipse cx="-11" cy="-2" rx="3.5" ry="4.5" fill="#0b1220"/>
    <ellipse cx="11" cy="-2" rx="3.5" ry="4.5" fill="#0b1220"/>
    <circle cx="-12.3" cy="-3.8" r="1.4" fill="#ffffff"/>
    <circle cx="9.7" cy="-3.8" r="1.4" fill="#ffffff"/>
    <circle cx="-18" cy="6" r="3" fill="#fb7185" opacity="0.5"/>
    <circle cx="18" cy="6" r="3" fill="#fb7185" opacity="0.5"/>
    <path d="M -8 8 Q 0 14 8 8" stroke="#0b1220" stroke-width="2.5" fill="none" stroke-linecap="round"/>
  </g>
  <g transform="translate(240,540)">
    <circle cx="0" cy="0" r="30" fill="#ffdfc8" stroke="#0b1220" stroke-width="3"/>
    <path d="M -30 -2 Q -30 -32 0 -32 Q 30 -32 30 -2 L 30 4 Q 15 -8 0 -8 Q -15 -8 -30 4 Z" fill="#22d3ee" stroke="#0b1220" stroke-width="2.5"/>
    <path d="M -17 -14 L -6 -11" stroke="#0b1220" stroke-width="2.5" stroke-linecap="round"/>
    <path d="M 17 -14 L 6 -11" stroke="#0b1220" stroke-width="2.5" stroke-linecap="round"/>
    <ellipse cx="-11" cy="-2" rx="4.5" ry="5.5" fill="#0b1220"/>
    <ellipse cx="11" cy="-2" rx="4.5" ry="5.5" fill="#0b1220"/>
    <ellipse cx="0" cy="10" rx="3.5" ry="5" fill="#0b1220"/>
    <path d="M 26 -20 q 5 7 0 11 q -5 -4 0 -11" fill="#7dd3fc" stroke="#0b1220" stroke-width="1.2"/>
  </g>
  <text class="t fcap" x="120" y="592" text-anchor="middle">日常</text>
  <text class="t fcap" x="240" y="592" text-anchor="middle">惊讶</text>

  <!-- ===== 标签君 Taggy · HTML5 结构师 ===== -->
  <rect x="440" y="96" width="360" height="540" rx="16" fill="#131c2e" stroke="#334155" stroke-width="3"/>
  <rect x="448" y="96" width="344" height="8" rx="4" fill="#fb923c"/>
  <rect x="464" y="118" width="150" height="34" rx="17" fill="#fb923c"/>
  <text class="t nm" x="539" y="141" text-anchor="middle">标签君</text>
  <text class="m" x="628" y="141" font-size="12" fill="#94a3b8">TAGGY</text>
  <circle cx="700" cy="136" r="7" fill="#fdba74" stroke="#0b1220" stroke-width="1.5"/>
  <circle cx="724" cy="136" r="7" fill="#fb923c" stroke="#0b1220" stroke-width="1.5"/>
  <circle cx="748" cy="136" r="7" fill="#fbbf24" stroke="#0b1220" stroke-width="1.5"/>
  <text class="t role" x="464" y="172">HTML5 结构师 · 语义搭台</text>
  <text class="t quote" x="464" y="194">「骨架我来搭，稳」</text>

  <g transform="translate(620,356)">
    <ellipse cx="0" cy="0" rx="42" ry="8" fill="#020617" opacity="0.5"/>
    <!-- 白球鞋 + 腿 -->
    <rect x="-26" y="-8" width="20" height="10" rx="5" fill="#f8fafc" stroke="#0b1220" stroke-width="2.5"/>
    <rect x="6" y="-8" width="20" height="10" rx="5" fill="#f8fafc" stroke="#0b1220" stroke-width="2.5"/>
    <rect x="-21" y="-24" width="13" height="18" fill="#c2410c" stroke="#0b1220" stroke-width="2"/>
    <rect x="8" y="-24" width="13" height="18" fill="#c2410c" stroke="#0b1220" stroke-width="2"/>
    <!-- 橙色机身 + HTML5 盾徽 + 腰带扣 -->
    <rect x="-34" y="-78" width="68" height="60" rx="14" fill="#fb923c" stroke="#0b1220" stroke-width="3"/>
    <polygon points="-13,-70 13,-70 10,-48 0,-44 -10,-48" fill="#0b1220" stroke="#0b1220" stroke-width="2"/>
    <text class="m" x="0" y="-52" text-anchor="middle" font-size="11" font-weight="bold" fill="#fbbf24">5</text>
    <rect x="-34" y="-26" width="68" height="8" fill="#c2410c" stroke="#0b1220" stroke-width="2"/>
    <rect x="-6" y="-27" width="12" height="10" rx="2" fill="#fbbf24" stroke="#0b1220" stroke-width="2"/>
    <!-- 关节臂 -->
    <rect x="-48" y="-68" width="14" height="34" rx="7" fill="#fb923c" stroke="#0b1220" stroke-width="2.5"/>
    <circle cx="-41" cy="-66" r="5" fill="#fdba74" stroke="#0b1220" stroke-width="2"/>
    <rect x="32" y="-71" width="34" height="13" rx="6.5" fill="#fb923c" stroke="#0b1220" stroke-width="2.5" transform="rotate(-20 32 -65)"/>
    <circle cx="38" cy="-64" r="5" fill="#fdba74" stroke="#0b1220" stroke-width="2"/>
    <!-- 头 + 耳机块 + &lt; &gt; 眼罩 -->
    <rect x="-30" y="-128" width="60" height="46" rx="13" fill="#fdba74" stroke="#0b1220" stroke-width="3"/>
    <rect x="-36" y="-112" width="8" height="18" rx="3" fill="#fb923c" stroke="#0b1220" stroke-width="2"/>
    <rect x="28" y="-112" width="8" height="18" rx="3" fill="#fb923c" stroke="#0b1220" stroke-width="2"/>
    <rect x="-23" y="-118" width="46" height="22" rx="8" fill="#0b1220"/>
    <text class="m" x="-10" y="-102" text-anchor="middle" font-size="16" font-weight="bold" fill="#22d3ee">&lt;</text>
    <text class="m" x="10" y="-102" text-anchor="middle" font-size="16" font-weight="bold" fill="#22d3ee">&gt;</text>
    <circle cx="-6" cy="-90" r="1.5" fill="#0b1220"/>
    <circle cx="0" cy="-90" r="1.5" fill="#0b1220"/>
    <circle cx="6" cy="-90" r="1.5" fill="#0b1220"/>
    <!-- 天线 + 光圈 -->
    <line x1="0" y1="-128" x2="0" y2="-142" stroke="#0b1220" stroke-width="3"/>
    <circle cx="0" cy="-147" r="9" fill="none" stroke="#fbbf24" stroke-width="1.5" opacity="0.4"/>
    <circle cx="0" cy="-147" r="5.5" fill="#fbbf24" stroke="#0b1220" stroke-width="2"/>
  </g>
  <text class="t vnote" x="620" y="442" text-anchor="middle">v2：HTML5 盾徽 · 耳机块 · 天线光圈 · 白球鞋</text>

  <line x1="464" y1="470" x2="776" y2="470" stroke="#334155" stroke-width="2"/>
  <text class="t lab" x="464" y="492">表情示范</text>
  <g transform="translate(540,540)">
    <line x1="0" y1="-17" x2="0" y2="-26" stroke="#0b1220" stroke-width="2.5"/>
    <circle cx="0" cy="-29" r="4" fill="#fbbf24" stroke="#0b1220" stroke-width="1.5"/>
    <rect x="-22" y="-17" width="44" height="34" rx="8" fill="#fdba74" stroke="#0b1220" stroke-width="2.5"/>
    <rect x="-16" y="-8" width="32" height="16" rx="5" fill="#0b1220"/>
    <text class="m" x="-7" y="4" text-anchor="middle" font-size="11" font-weight="bold" fill="#22d3ee">&lt;</text>
    <text class="m" x="7" y="4" text-anchor="middle" font-size="11" font-weight="bold" fill="#22d3ee">&gt;</text>
  </g>
  <g transform="translate(660,540)">
    <line x1="0" y1="-17" x2="0" y2="-26" stroke="#0b1220" stroke-width="2.5"/>
    <circle cx="0" cy="-29" r="4" fill="#fbbf24" stroke="#0b1220" stroke-width="1.5"/>
    <line x1="8" y1="-30" x2="12" y2="-36" stroke="#fbbf24" stroke-width="2.5" stroke-linecap="round"/>
    <line x1="-8" y1="-30" x2="-12" y2="-36" stroke="#fbbf24" stroke-width="2.5" stroke-linecap="round"/>
    <rect x="-22" y="-17" width="44" height="34" rx="8" fill="#fdba74" stroke="#0b1220" stroke-width="2.5"/>
    <rect x="-16" y="-8" width="32" height="16" rx="5" fill="#0b1220"/>
    <path d="M -11 4 Q -7 -2 -3 4" stroke="#fbbf24" stroke-width="2.5" fill="none" stroke-linecap="round"/>
    <path d="M 3 4 Q 7 -2 11 4" stroke="#fbbf24" stroke-width="2.5" fill="none" stroke-linecap="round"/>
  </g>
  <text class="t fcap" x="540" y="592" text-anchor="middle">日常</text>
  <text class="t fcap" x="660" y="592" text-anchor="middle">激动</text>

  <!-- ===== 码叔 Prof. Moo · 划重点担当 ===== -->
  <rect x="840" y="96" width="360" height="540" rx="16" fill="#131c2e" stroke="#334155" stroke-width="3"/>
  <rect x="848" y="96" width="344" height="8" rx="4" fill="#fbbf24"/>
  <rect x="864" y="118" width="150" height="34" rx="17" fill="#f59e0b"/>
  <text class="t nm" x="939" y="141" text-anchor="middle">码叔</text>
  <text class="m" x="1028" y="141" font-size="12" fill="#94a3b8">PROF. MOO</text>
  <circle cx="1100" cy="136" r="7" fill="#f59e0b" stroke="#0b1220" stroke-width="1.5"/>
  <circle cx="1124" cy="136" r="7" fill="#fde68a" stroke="#0b1220" stroke-width="1.5"/>
  <circle cx="1148" cy="136" r="7" fill="#b45309" stroke="#0b1220" stroke-width="1.5"/>
  <text class="t role" x="864" y="172">划重点担当 · 每话收尾三句</text>
  <text class="t quote" x="864" y="194">「带走三句，就够了」</text>

  <g transform="translate(1020,350) scale(1.25)">
    <ellipse cx="0" cy="68" rx="48" ry="7" fill="#020617" opacity="0.5"/>
    <line x1="-9" y1="60" x2="-9" y2="66" stroke="#78350f" stroke-width="3.5" stroke-linecap="round"/>
    <line x1="9" y1="60" x2="9" y2="66" stroke="#78350f" stroke-width="3.5" stroke-linecap="round"/>
    <!-- 猫头鹰身 + 学士袍 -->
    <ellipse cx="0" cy="12" rx="30" ry="22" fill="#b45309" stroke="#78350f" stroke-width="3"/>
    <ellipse cx="0" cy="16" rx="17" ry="13" fill="#fde68a"/>
    <path d="M -30 18 L 30 18 L 38 52 Q 0 60 -38 52 Z" fill="#1e293b" stroke="#0b1220" stroke-width="2.5"/>
    <line x1="0" y1="22" x2="0" y2="54" stroke="#334155" stroke-width="2"/>
    <!-- 翅膀：左垂右举持教鞭 -->
    <path d="M -30 2 Q -46 12 -37 28 Q -30 20 -28 6 Z" fill="#92400e" stroke="#78350f" stroke-width="2.5"/>
    <path d="M 30 -4 Q 44 -14 40 -28 Q 30 -22 26 -8 Z" fill="#92400e" stroke="#78350f" stroke-width="2.5"/>
    <line x1="40" y1="-28" x2="56" y2="-56" stroke="#b45309" stroke-width="3.5" stroke-linecap="round"/>
    <circle cx="56" cy="-56" r="3.5" fill="#fbbf24" stroke="#78350f" stroke-width="1.5"/>
    <!-- 品红领结 -->
    <polygon points="-9,10 0,6 0,14" fill="#f472b6" stroke="#0b1220" stroke-width="1.5"/>
    <polygon points="9,10 0,6 0,14" fill="#f472b6" stroke="#0b1220" stroke-width="1.5"/>
    <circle cx="0" cy="10" r="2.5" fill="#db2777"/>
    <!-- 头 + 学士帽 + 流苏 -->
    <circle cx="0" cy="-26" r="33" fill="#f59e0b" stroke="#78350f" stroke-width="3"/>
    <polygon points="-27,-50 0,-62 27,-50 0,-42" fill="#1e293b" stroke="#0b1220" stroke-width="2"/>
    <circle cx="0" cy="-62" r="2.5" fill="#fbbf24"/>
    <path d="M 27 -50 L 33 -34" stroke="#fbbf24" stroke-width="2"/>
    <circle cx="33" cy="-31" r="3" fill="#fbbf24"/>
    <!-- 圆框眼镜 + 高光眼 -->
    <circle cx="-12" cy="-30" r="12.5" fill="#fffbeb" stroke="#78350f" stroke-width="2"/>
    <circle cx="12" cy="-30" r="12.5" fill="#fffbeb" stroke="#78350f" stroke-width="2"/>
    <line x1="-1" y1="-30" x2="1" y2="-30" stroke="#78350f" stroke-width="2"/>
    <line x1="-24.5" y1="-30" x2="-30" y2="-32" stroke="#78350f" stroke-width="2"/>
    <line x1="24.5" y1="-30" x2="30" y2="-32" stroke="#78350f" stroke-width="2"/>
    <circle cx="-12" cy="-30" r="4.5" fill="#0b1220"/>
    <circle cx="12" cy="-30" r="4.5" fill="#0b1220"/>
    <circle cx="-13.5" cy="-32" r="1.5" fill="#ffffff"/>
    <circle cx="10.5" cy="-32" r="1.5" fill="#ffffff"/>
    <polygon points="0,-14 -6,-22 6,-22" fill="#f97316" stroke="#78350f" stroke-width="2"/>
  </g>
  <text class="t vnote" x="1020" y="442" text-anchor="middle">v2：学士袍 · 品红领结 · 圆框眼镜 · 教鞭</text>

  <line x1="864" y1="470" x2="1176" y2="470" stroke="#334155" stroke-width="2"/>
  <text class="t lab" x="864" y="492">表情示范</text>
  <g transform="translate(940,540)">
    <polygon points="-26,-22 -16,-36 -10,-20" fill="#f59e0b" stroke="#78350f" stroke-width="2"/>
    <polygon points="26,-22 16,-36 10,-20" fill="#f59e0b" stroke="#78350f" stroke-width="2"/>
    <circle cx="0" cy="0" r="30" fill="#f59e0b" stroke="#78350f" stroke-width="3"/>
    <circle cx="-11" cy="-4" r="10" fill="#fffbeb" stroke="#78350f" stroke-width="2"/>
    <circle cx="11" cy="-4" r="10" fill="#fffbeb" stroke="#78350f" stroke-width="2"/>
    <circle cx="-11" cy="-4" r="4" fill="#0b1220"/>
    <circle cx="11" cy="-4" r="4" fill="#0b1220"/>
    <polygon points="0,8 -6,0 6,0" fill="#f97316" stroke="#78350f" stroke-width="1.5"/>
  </g>
  <g transform="translate(1060,540)">
    <polygon points="-26,-22 -16,-36 -10,-20" fill="#f59e0b" stroke="#78350f" stroke-width="2"/>
    <polygon points="26,-22 16,-36 10,-20" fill="#f59e0b" stroke="#78350f" stroke-width="2"/>
    <circle cx="0" cy="0" r="30" fill="#f59e0b" stroke="#78350f" stroke-width="3"/>
    <circle cx="-11" cy="-4" r="10" fill="#fffbeb" stroke="#78350f" stroke-width="2"/>
    <circle cx="11" cy="-4" r="10" fill="#fffbeb" stroke="#78350f" stroke-width="2"/>
    <circle cx="-11" cy="-1" r="4" fill="#0b1220"/>
    <circle cx="11" cy="-1" r="4" fill="#0b1220"/>
    <path d="M -20 -16 L -4 -14" stroke="#78350f" stroke-width="2.5" stroke-linecap="round"/>
    <path d="M 4 -14 L 20 -16" stroke="#78350f" stroke-width="2.5" stroke-linecap="round"/>
    <polygon points="0,8 -6,0 6,0" fill="#f97316" stroke="#78350f" stroke-width="1.5"/>
  </g>
  <text class="t fcap" x="940" y="592" text-anchor="middle">开讲</text>
  <text class="t fcap" x="1060" y="592" text-anchor="middle">严肃</text>
</svg>
