<!-- EP.06 · 变量与 calc — CSS 的"运行时"与"计算器"，规范见 ../style-guide.md -->
<svg xmlns="http://www.w3.org/2000/svg" viewBox="0 0 1200 840">
  <defs>
    <style>
      .t{font-family:'PingFang SC','Hiragino Sans GB','Microsoft YaHei',sans-serif;}
      .m{font-family:'SFMono-Regular',Menlo,Consolas,monospace;}
      .st{font-size:15px;fill:#94a3b8;}
      .bt{font-size:30px;font-weight:bold;fill:#f8fafc;}
      .pt{font-size:19px;font-weight:bold;fill:#f8fafc;}
      .an{font-size:12.5px;fill:#94a3b8;}
      .cd{font-size:11.5px;fill:#cbd5e1;}
      .kt{font-size:20px;font-weight:bold;fill:#451a03;}
      .kb{font-size:15px;fill:#451a03;}
      .ft{font-size:12.5px;fill:#64748b;}
    </style>
    <pattern id="ht" width="14" height="14" patternUnits="userSpaceOnUse">
      <circle cx="3" cy="3" r="1.8" fill="#f8fafc" opacity="0.05"/>
    </pattern>
    <g id="pixelv2">
      <ellipse cx="0" cy="0" rx="46" ry="9" fill="#020617" opacity="0.5"/>
      <rect x="-24" y="-8" width="18" height="9" rx="4" fill="#f8fafc" stroke="#0b1220" stroke-width="2.5"/>
      <rect x="6" y="-8" width="18" height="9" rx="4" fill="#f8fafc" stroke="#0b1220" stroke-width="2.5"/>
      <rect x="-18" y="-30" width="11" height="24" fill="#f8d8bf" stroke="#0b1220" stroke-width="2"/>
      <rect x="7" y="-30" width="11" height="24" fill="#f8d8bf" stroke="#0b1220" stroke-width="2"/>
      <path d="M 30 -128 Q 58 -120 54 -92 Q 51 -74 38 -70 Q 48 -86 42 -100 Q 38 -114 26 -120 Z" fill="#22d3ee" stroke="#0b1220" stroke-width="3"/>
      <circle cx="29" cy="-124" r="5" fill="#fbbf24" stroke="#0b1220" stroke-width="2"/>
      <path d="M -32 -84 L 32 -84 L 26 -26 L -26 -26 Z" fill="#f472b6" stroke="#0b1220" stroke-width="3" stroke-linejoin="round"/>
      <path d="M -26 -34 L 26 -34" stroke="#db2777" stroke-width="2"/>
      <path d="M -6 -80 L -9 -64" stroke="#f8fafc" stroke-width="2.5" stroke-linecap="round"/>
      <path d="M 6 -80 L 9 -64" stroke="#f8fafc" stroke-width="2.5" stroke-linecap="round"/>
      <circle cx="-9" cy="-62" r="2" fill="#f8fafc"/>
      <circle cx="9" cy="-62" r="2" fill="#f8fafc"/>
      <rect x="-14" y="-60" width="28" height="14" rx="4" fill="#22d3ee" stroke="#0b1220" stroke-width="2"/>
      <text class="m" x="0" y="-50" text-anchor="middle" font-size="9" font-weight="bold" fill="#0b1220">CSS</text>
      <rect x="-46" y="-72" width="14" height="36" rx="7" fill="#f472b6" stroke="#0b1220" stroke-width="2.5"/>
      <rect x="30" y="-106" width="14" height="34" rx="7" fill="#f472b6" stroke="#0b1220" stroke-width="2.5" transform="rotate(-55 37 -89)"/>
      <circle cx="0" cy="-106" r="31" fill="#ffdfc8" stroke="#0b1220" stroke-width="3"/>
      <path d="M -33 -104 Q -35 -142 0 -142 Q 35 -142 33 -104 L 33 -96 Q 17 -110 0 -110 Q -17 -110 -33 -96 Z" fill="#22d3ee" stroke="#0b1220" stroke-width="3"/>
      <path d="M -33 -114 L -39 -76 Q -33 -68 -26 -78 Z" fill="#22d3ee" stroke="#0b1220" stroke-width="2"/>
      <path d="M 33 -114 L 39 -76 Q 33 -68 26 -78 Z" fill="#22d3ee" stroke="#0b1220" stroke-width="2"/>
      <path d="M 8 -140 Q 20 -124 17 -108 L 24 -111 Q 27 -128 19 -138 Z" fill="#a78bfa" stroke="#0b1220" stroke-width="2"/>
      <path d="M -19 -130 Q -25 -123 -19 -116" stroke="#fbbf24" stroke-width="3" fill="none" stroke-linecap="round"/>
      <ellipse cx="-12" cy="-108" rx="4.5" ry="6" fill="#0b1220"/>
      <ellipse cx="12" cy="-108" rx="4.5" ry="6" fill="#0b1220"/>
      <circle cx="-13.5" cy="-110.5" r="1.8" fill="#ffffff"/>
      <circle cx="10.5" cy="-110.5" r="1.8" fill="#ffffff"/>
      <path d="M -18 -118 Q -12 -121 -6 -119" stroke="#0b1220" stroke-width="2.2" fill="none" stroke-linecap="round"/>
      <path d="M 18 -118 Q 12 -121 6 -119" stroke="#0b1220" stroke-width="2.2" fill="none" stroke-linecap="round"/>
      <circle cx="-20" cy="-100" r="4" fill="#fb7185" opacity="0.55"/>
      <circle cx="20" cy="-100" r="4" fill="#fb7185" opacity="0.55"/>
      <path d="M -9 -94 Q 0 -83 9 -94" stroke="#0b1220" stroke-width="3" fill="none" stroke-linecap="round"/>
    </g>
    <g id="taggyv2">
      <ellipse cx="0" cy="0" rx="42" ry="8" fill="#020617" opacity="0.5"/>
      <rect x="-26" y="-8" width="20" height="10" rx="5" fill="#f8fafc" stroke="#0b1220" stroke-width="2.5"/>
      <rect x="6" y="-8" width="20" height="10" rx="5" fill="#f8fafc" stroke="#0b1220" stroke-width="2.5"/>
      <rect x="-21" y="-24" width="13" height="18" fill="#c2410c" stroke="#0b1220" stroke-width="2"/>
      <rect x="8" y="-24" width="13" height="18" fill="#c2410c" stroke="#0b1220" stroke-width="2"/>
      <rect x="-34" y="-78" width="68" height="60" rx="14" fill="#fb923c" stroke="#0b1220" stroke-width="3"/>
      <polygon points="-13,-70 13,-70 10,-48 0,-44 -10,-48" fill="#0b1220" stroke="#0b1220" stroke-width="2"/>
      <text class="m" x="0" y="-52" text-anchor="middle" font-size="11" font-weight="bold" fill="#fbbf24">5</text>
      <rect x="-34" y="-26" width="68" height="8" fill="#c2410c" stroke="#0b1220" stroke-width="2"/>
      <rect x="-6" y="-27" width="12" height="10" rx="2" fill="#fbbf24" stroke="#0b1220" stroke-width="2"/>
      <rect x="-48" y="-68" width="14" height="34" rx="7" fill="#fb923c" stroke="#0b1220" stroke-width="2.5"/>
      <circle cx="-41" cy="-66" r="5" fill="#fdba74" stroke="#0b1220" stroke-width="2"/>
      <rect x="32" y="-71" width="34" height="13" rx="6.5" fill="#fb923c" stroke="#0b1220" stroke-width="2.5" transform="rotate(-20 32 -65)"/>
      <circle cx="38" cy="-64" r="5" fill="#fdba74" stroke="#0b1220" stroke-width="2"/>
      <rect x="-30" y="-128" width="60" height="46" rx="13" fill="#fdba74" stroke="#0b1220" stroke-width="3"/>
      <rect x="-36" y="-112" width="8" height="18" rx="3" fill="#fb923c" stroke="#0b1220" stroke-width="2"/>
      <rect x="28" y="-112" width="8" height="18" rx="3" fill="#fb923c" stroke="#0b1220" stroke-width="2"/>
      <rect x="-23" y="-118" width="46" height="22" rx="8" fill="#0b1220"/>
      <text class="m" x="-10" y="-102" text-anchor="middle" font-size="16" font-weight="bold" fill="#22d3ee">&lt;</text>
      <text class="m" x="10" y="-102" text-anchor="middle" font-size="16" font-weight="bold" fill="#22d3ee">&gt;</text>
      <circle cx="-6" cy="-90" r="1.5" fill="#0b1220"/>
      <circle cx="0" cy="-90" r="1.5" fill="#0b1220"/>
      <circle cx="6" cy="-90" r="1.5" fill="#0b1220"/>
      <line x1="0" y1="-128" x2="0" y2="-142" stroke="#0b1220" stroke-width="3"/>
      <circle cx="0" cy="-147" r="9" fill="none" stroke="#fbbf24" stroke-width="1.5" opacity="0.4"/>
      <circle cx="0" cy="-147" r="5.5" fill="#fbbf24" stroke="#0b1220" stroke-width="2"/>
    </g>
    <g id="moov2">
      <ellipse cx="0" cy="68" rx="48" ry="7" fill="#020617" opacity="0.5"/>
      <line x1="-9" y1="60" x2="-9" y2="66" stroke="#78350f" stroke-width="3.5" stroke-linecap="round"/>
      <line x1="9" y1="60" x2="9" y2="66" stroke="#78350f" stroke-width="3.5" stroke-linecap="round"/>
      <ellipse cx="0" cy="12" rx="30" ry="22" fill="#b45309" stroke="#78350f" stroke-width="3"/>
      <ellipse cx="0" cy="16" rx="17" ry="13" fill="#fde68a"/>
      <path d="M -30 18 L 30 18 L 38 52 Q 0 60 -38 52 Z" fill="#1e293b" stroke="#0b1220" stroke-width="2.5"/>
      <line x1="0" y1="22" x2="0" y2="54" stroke="#334155" stroke-width="2"/>
      <path d="M -30 2 Q -46 12 -37 28 Q -30 20 -28 6 Z" fill="#92400e" stroke="#78350f" stroke-width="2.5"/>
      <path d="M 30 -4 Q 44 -14 40 -28 Q 30 -22 26 -8 Z" fill="#92400e" stroke="#78350f" stroke-width="2.5"/>
      <line x1="40" y1="-28" x2="56" y2="-56" stroke="#b45309" stroke-width="3.5" stroke-linecap="round"/>
      <circle cx="56" cy="-56" r="3.5" fill="#fbbf24" stroke="#78350f" stroke-width="1.5"/>
      <polygon points="-9,10 0,6 0,14" fill="#f472b6" stroke="#0b1220" stroke-width="1.5"/>
      <polygon points="9,10 0,6 0,14" fill="#f472b6" stroke="#0b1220" stroke-width="1.5"/>
      <circle cx="0" cy="10" r="2.5" fill="#db2777"/>
      <circle cx="0" cy="-26" r="33" fill="#f59e0b" stroke="#78350f" stroke-width="3"/>
      <polygon points="-27,-50 0,-62 27,-50 0,-42" fill="#1e293b" stroke="#0b1220" stroke-width="2"/>
      <circle cx="0" cy="-62" r="2.5" fill="#fbbf24"/>
      <path d="M 27 -50 L 33 -34" stroke="#fbbf24" stroke-width="2"/>
      <circle cx="33" cy="-31" r="3" fill="#fbbf24"/>
      <circle cx="-12" cy="-30" r="12.5" fill="#fffbeb" stroke="#78350f" stroke-width="2"/>
      <circle cx="12" cy="-30" r="12.5" fill="#fffbeb" stroke="#78350f" stroke-width="2"/>
      <line x1="-1" y1="-30" x2="1" y2="-30" stroke="#78350f" stroke-width="2"/>
      <line x1="-24.5" y1="-30" x2="-30" y2="-32" stroke="#78350f" stroke-width="2"/>
      <line x1="24.5" y1="-30" x2="30" y2="-32" stroke="#78350f" stroke-width="2"/>
      <circle cx="-12" cy="-30" r="4.5" fill="#0b1220"/>
      <circle cx="12" cy="-30" r="4.5" fill="#0b1220"/>
      <circle cx="-13.5" cy="-32" r="1.5" fill="#ffffff"/>
      <circle cx="10.5" cy="-32" r="1.5" fill="#ffffff"/>
      <polygon points="0,-14 -6,-22 6,-22" fill="#f97316" stroke="#78350f" stroke-width="2"/>
    </g>
  </defs>

  <rect x="0" y="0" width="1200" height="840" fill="#0b1220"/>

  <!-- ===== 顶部横幅 ===== -->
  <rect x="40" y="6" width="120" height="6" rx="3" fill="#22d3ee"/>
  <rect x="40" y="16" width="120" height="6" rx="3" fill="#f472b6"/>
  <text class="t st" x="40" y="40">前端漫画实验室 · CSS3 × HTML5 漫画剧场</text>
  <text class="t bt" x="40" y="80">第 6 话 · 变量与 calc — CSS 的"运行时"与"计算器"</text>
  <rect x="1020" y="26" width="140" height="44" rx="22" fill="#22d3ee"/>
  <text class="m" x="1090" y="54" text-anchor="middle" font-size="19" font-weight="bold" fill="#0b1220">EP.06</text>
  <line x1="0" y1="96" x2="1200" y2="96" stroke="#1e293b" stroke-width="2"/>

  <!-- ===== 格1 · 痛点现场 ===== -->
  <rect x="40" y="120" width="556" height="250" rx="16" fill="#131c2e" stroke="#334155" stroke-width="3"/>
  <rect x="40" y="120" width="556" height="250" rx="16" fill="url(#ht)"/>
  <circle cx="66" cy="146" r="14" fill="#22d3ee"/>
  <text class="m" x="66" y="151" text-anchor="middle" font-size="15" font-weight="bold" fill="#0b1220">1</text>
  <text class="t pt" x="92" y="152">痛点现场 · 37 处魔法数字</text>
  <rect x="64" y="176" width="380" height="120" rx="10" fill="#1e293b" stroke="#334155" stroke-width="2"/>
  <text class="m cd" x="80" y="202">.btn   { color: #4361ee }</text>
  <text class="m cd" x="80" y="224">.link  { color: #4361ee }</text>
  <text class="m cd" x="80" y="246">.badge { color: #4362ee }</text>
  <rect x="186" y="233" width="58" height="18" rx="3" fill="none" stroke="#f87171" stroke-width="2"/>
  <text class="t" x="256" y="247" font-size="10.5" fill="#f87171">← 漏改的</text>
  <text class="m cd" x="80" y="268">.icon  { fill: #4361ee }</text>
  <text class="t" x="64" y="320" font-size="15" font-weight="bold" fill="#f87171">改个主题色 = 全局搜索替换，漏一处就"花"</text>
  <text class="t an" x="64" y="344">颜色写死在无数文件里——传说中的"魔法数字"</text>
  <use href="#pixelv2" transform="translate(524,352) scale(0.55)"/>
  <text class="t" x="552" y="284" font-size="20" font-weight="bold" fill="#f87171">?</text>
  <circle cx="560" cy="146" r="12" fill="#f87171"/>
  <text class="t" x="560" y="151" text-anchor="middle" font-size="15" font-weight="bold" fill="#0b1220">?</text>

  <!-- ===== 格2 · 机制登场 ===== -->
  <rect x="616" y="120" width="544" height="250" rx="16" fill="#131c2e" stroke="#334155" stroke-width="3"/>
  <rect x="616" y="120" width="544" height="250" rx="16" fill="url(#ht)"/>
  <circle cx="642" cy="146" r="14" fill="#a78bfa"/>
  <text class="m" x="642" y="151" text-anchor="middle" font-size="15" font-weight="bold" fill="#0b1220">2</text>
  <text class="t pt" x="668" y="152">机制登场 · 变量是"活的"</text>
  <rect x="648" y="172" width="230" height="150" rx="10" fill="none" stroke="#22d3ee" stroke-width="2"/>
  <text class="m" x="660" y="190" font-size="11" fill="#22d3ee">:root { --brand:#22d3ee }</text>
  <rect x="664" y="200" width="198" height="84" rx="8" fill="#1e293b" stroke="#f472b6" stroke-width="2"/>
  <text class="m" x="676" y="220" font-size="11" fill="#f472b6">.card { --accent:#f472b6 }</text>
  <rect x="676" y="240" width="70" height="18" rx="4" fill="#f472b6"/>
  <text class="t" x="711" y="253" text-anchor="middle" font-size="10" font-weight="bold" fill="#0b1220">tag 品红</text>
  <rect x="664" y="294" width="70" height="18" rx="4" fill="#22d3ee"/>
  <text class="t" x="699" y="307" text-anchor="middle" font-size="10" font-weight="bold" fill="#0b1220">tag 青</text>
  <text class="t" x="744" y="308" font-size="10.5" fill="#64748b">出了卡片，还原全局</text>
  <rect x="900" y="172" width="220" height="116" rx="10" fill="#1e293b" stroke="#334155" stroke-width="2"/>
  <text class="m" x="916" y="196" font-size="11" fill="#cbd5e1">el.style.setProperty(</text>
  <text class="m" x="916" y="214" font-size="11" fill="#cbd5e1">  '--brand', '#f472b6')</text>
  <text class="t" x="916" y="240" font-size="11" fill="#94a3b8">一行 JS，全站自动换色</text>
  <text class="m" x="916" y="260" font-size="11" fill="#22d3ee">var(--gap, 8px)</text>
  <text class="t" x="916" y="278" font-size="10.5" fill="#64748b">未定义时用回退值兜底</text>
  <text class="t an" x="648" y="344">变量沿 DOM 继承——作用域即换肤边界</text>
  <use href="#taggyv2" transform="translate(1105,356) scale(0.44)"/>

  <!-- ===== 格3 · 落地收束 ===== -->
  <rect x="40" y="390" width="1120" height="230" rx="16" fill="#131c2e" stroke="#334155" stroke-width="3"/>
  <rect x="40" y="390" width="1120" height="230" rx="16" fill="url(#ht)"/>
  <circle cx="66" cy="416" r="14" fill="#fbbf24"/>
  <text class="m" x="66" y="421" text-anchor="middle" font-size="15" font-weight="bold" fill="#0b1220">3</text>
  <text class="t pt" x="92" y="422">落地收束 · 换肤三段式</text>
  <rect x="64" y="438" width="200" height="120" rx="10" fill="#f8fafc" stroke="#334155" stroke-width="2"/>
  <rect x="76" y="450" width="176" height="10" rx="3" fill="#cbd5e1"/>
  <rect x="76" y="470" width="120" height="6" rx="3" fill="#e2e8f0"/>
  <rect x="76" y="484" width="140" height="6" rx="3" fill="#e2e8f0"/>
  <rect x="76" y="498" width="100" height="6" rx="3" fill="#e2e8f0"/>
  <text class="t" x="164" y="548" text-anchor="middle" font-size="11" fill="#64748b">:root 亮色默认</text>
  <rect x="278" y="432" width="212" height="132" rx="12" fill="none" stroke="#22d3ee" stroke-width="2" opacity="0.35"/>
  <rect x="284" y="438" width="200" height="120" rx="10" fill="#0b1220" stroke="#22d3ee" stroke-width="2"/>
  <rect x="296" y="450" width="176" height="10" rx="3" fill="#334155"/>
  <rect x="296" y="470" width="120" height="6" rx="3" fill="#1e293b"/>
  <rect x="296" y="484" width="140" height="6" rx="3" fill="#1e293b"/>
  <rect x="296" y="498" width="100" height="6" rx="3" fill="#1e293b"/>
  <text class="t" x="384" y="548" text-anchor="middle" font-size="11" fill="#94a3b8">[data-theme="dark"]</text>
  <rect x="520" y="438" width="280" height="120" rx="10" fill="#1e293b" stroke="#334155" stroke-width="2"/>
  <text class="t" x="536" y="462" font-size="13" font-weight="bold" fill="#f8fafc">calc 的空格红线</text>
  <text class="m" x="536" y="488" font-size="11.5" fill="#22d3ee">calc(100% - 10px) ✓</text>
  <text class="m" x="536" y="510" font-size="11.5" fill="#f87171">calc(100%-10px) ✗ 解析失败</text>
  <text class="t" x="536" y="536" font-size="11" fill="#94a3b8">clamp(MIN, VAL, MAX) 顺序别写反</text>
  <rect x="820" y="438" width="300" height="120" rx="10" fill="#1e293b" stroke="#a78bfa" stroke-width="2"/>
  <text class="t" x="836" y="462" font-size="13" font-weight="bold" fill="#f8fafc">@property：变量能动画了</text>
  <text class="m" x="836" y="488" font-size="11" fill="#cbd5e1">@property --deg { syntax:'&lt;angle&gt;' }</text>
  <text class="t" x="836" y="512" font-size="11" fill="#94a3b8">未注册 = 字符串，只能跳变</text>
  <text class="t" x="836" y="532" font-size="11" fill="#94a3b8">注册后逐帧插值，渐变能转了</text>
  <text class="m" x="64" y="584" font-size="11" fill="#fbbf24">document.documentElement.dataset.theme = 'dark'</text>
  <path d="M 506 430 l 3 8 8 3 -8 3 -3 8 -3 -8 -8 -3 8 -3 Z" fill="#fbbf24"/>

  <!-- ===== 知识条 ===== -->
  <rect x="40" y="640" width="1120" height="152" rx="16" fill="#fbbf24" stroke="#78350f" stroke-width="3"/>
  <use href="#moov2" transform="translate(150,744) scale(0.62)"/>
  <text class="t kt" x="230" y="676">码叔划重点</text>
  <circle cx="248" cy="703" r="4" fill="#b45309"/>
  <text class="t kb" x="266" y="708">变量参与层叠与继承，换肤 = 换一组变量；高频变量挂在最小子树根上</text>
  <circle cx="248" cy="731" r="4" fill="#b45309"/>
  <text class="t kb" x="266" y="736">calc 运算符两侧必须有空格：calc(100% - 10px) 对，calc(100%-10px) 失效</text>
  <circle cx="248" cy="759" r="4" fill="#b45309"/>
  <text class="t kb" x="266" y="764">未注册的变量是字符串不能插值；@property 注册类型后才能参与过渡与动画</text>
  <rect x="1000" y="700" width="140" height="32" rx="16" fill="none" stroke="#b45309" stroke-width="1.5"/>
  <text class="t" x="1070" y="721" text-anchor="middle" font-size="13" font-weight="bold" fill="#b45309">EP.06 · 变量与 calc</text>

  <text class="t ft" x="40" y="822">霓虹墨 Neon Ink · 第 6 话 — 深入阅读 docs/css/06-variables-calc.md · 示例 examples/css/06-variables-calc</text>
</svg>
