<!-- EP.09 · Transform — 不惊动文档流的几何魔法，规范见 ../style-guide.md -->
<svg xmlns="http://www.w3.org/2000/svg" viewBox="0 0 1200 840">
  <defs>
    <style>
      .t{font-family:'PingFang SC','Hiragino Sans GB','Microsoft YaHei',sans-serif;}
      .m{font-family:'SFMono-Regular',Menlo,Consolas,monospace;}
      .st{font-size:15px;fill:#94a3b8;}
      .bt{font-size:30px;font-weight:bold;fill:#f8fafc;}
      .pt{font-size:19px;font-weight:bold;fill:#f8fafc;}
      .an{font-size:12.5px;fill:#94a3b8;}
      .cd{font-size:11.5px;fill:#cbd5e1;}
      .kt{font-size:20px;font-weight:bold;fill:#451a03;}
      .kb{font-size:15px;fill:#451a03;}
      .ft{font-size:12.5px;fill:#64748b;}
    </style>
    <pattern id="ht" width="14" height="14" patternUnits="userSpaceOnUse">
      <circle cx="3" cy="3" r="1.8" fill="#f8fafc" opacity="0.05"/>
    </pattern>
    <g id="pixelv2">
      <ellipse cx="0" cy="0" rx="46" ry="9" fill="#020617" opacity="0.5"/>
      <rect x="-24" y="-8" width="18" height="9" rx="4" fill="#f8fafc" stroke="#0b1220" stroke-width="2.5"/>
      <rect x="6" y="-8" width="18" height="9" rx="4" fill="#f8fafc" stroke="#0b1220" stroke-width="2.5"/>
      <rect x="-18" y="-30" width="11" height="24" fill="#f8d8bf" stroke="#0b1220" stroke-width="2"/>
      <rect x="7" y="-30" width="11" height="24" fill="#f8d8bf" stroke="#0b1220" stroke-width="2"/>
      <path d="M 30 -128 Q 58 -120 54 -92 Q 51 -74 38 -70 Q 48 -86 42 -100 Q 38 -114 26 -120 Z" fill="#22d3ee" stroke="#0b1220" stroke-width="3"/>
      <circle cx="29" cy="-124" r="5" fill="#fbbf24" stroke="#0b1220" stroke-width="2"/>
      <path d="M -32 -84 L 32 -84 L 26 -26 L -26 -26 Z" fill="#f472b6" stroke="#0b1220" stroke-width="3" stroke-linejoin="round"/>
      <path d="M -26 -34 L 26 -34" stroke="#db2777" stroke-width="2"/>
      <path d="M -6 -80 L -9 -64" stroke="#f8fafc" stroke-width="2.5" stroke-linecap="round"/>
      <path d="M 6 -80 L 9 -64" stroke="#f8fafc" stroke-width="2.5" stroke-linecap="round"/>
      <circle cx="-9" cy="-62" r="2" fill="#f8fafc"/>
      <circle cx="9" cy="-62" r="2" fill="#f8fafc"/>
      <rect x="-14" y="-60" width="28" height="14" rx="4" fill="#22d3ee" stroke="#0b1220" stroke-width="2"/>
      <text class="m" x="0" y="-50" text-anchor="middle" font-size="9" font-weight="bold" fill="#0b1220">CSS</text>
      <rect x="-46" y="-72" width="14" height="36" rx="7" fill="#f472b6" stroke="#0b1220" stroke-width="2.5"/>
      <rect x="30" y="-106" width="14" height="34" rx="7" fill="#f472b6" stroke="#0b1220" stroke-width="2.5" transform="rotate(-55 37 -89)"/>
      <circle cx="0" cy="-106" r="31" fill="#ffdfc8" stroke="#0b1220" stroke-width="3"/>
      <path d="M -33 -104 Q -35 -142 0 -142 Q 35 -142 33 -104 L 33 -96 Q 17 -110 0 -110 Q -17 -110 -33 -96 Z" fill="#22d3ee" stroke="#0b1220" stroke-width="3"/>
      <path d="M -33 -114 L -39 -76 Q -33 -68 -26 -78 Z" fill="#22d3ee" stroke="#0b1220" stroke-width="2"/>
      <path d="M 33 -114 L 39 -76 Q 33 -68 26 -78 Z" fill="#22d3ee" stroke="#0b1220" stroke-width="2"/>
      <path d="M 8 -140 Q 20 -124 17 -108 L 24 -111 Q 27 -128 19 -138 Z" fill="#a78bfa" stroke="#0b1220" stroke-width="2"/>
      <path d="M -19 -130 Q -25 -123 -19 -116" stroke="#fbbf24" stroke-width="3" fill="none" stroke-linecap="round"/>
      <ellipse cx="-12" cy="-108" rx="4.5" ry="6" fill="#0b1220"/>
      <ellipse cx="12" cy="-108" rx="4.5" ry="6" fill="#0b1220"/>
      <circle cx="-13.5" cy="-110.5" r="1.8" fill="#ffffff"/>
      <circle cx="10.5" cy="-110.5" r="1.8" fill="#ffffff"/>
      <path d="M -18 -118 Q -12 -121 -6 -119" stroke="#0b1220" stroke-width="2.2" fill="none" stroke-linecap="round"/>
      <path d="M 18 -118 Q 12 -121 6 -119" stroke="#0b1220" stroke-width="2.2" fill="none" stroke-linecap="round"/>
      <circle cx="-20" cy="-100" r="4" fill="#fb7185" opacity="0.55"/>
      <circle cx="20" cy="-100" r="4" fill="#fb7185" opacity="0.55"/>
      <path d="M -9 -94 Q 0 -83 9 -94" stroke="#0b1220" stroke-width="3" fill="none" stroke-linecap="round"/>
    </g>
    <g id="taggyv2">
      <ellipse cx="0" cy="0" rx="42" ry="8" fill="#020617" opacity="0.5"/>
      <rect x="-26" y="-8" width="20" height="10" rx="5" fill="#f8fafc" stroke="#0b1220" stroke-width="2.5"/>
      <rect x="6" y="-8" width="20" height="10" rx="5" fill="#f8fafc" stroke="#0b1220" stroke-width="2.5"/>
      <rect x="-21" y="-24" width="13" height="18" fill="#c2410c" stroke="#0b1220" stroke-width="2"/>
      <rect x="8" y="-24" width="13" height="18" fill="#c2410c" stroke="#0b1220" stroke-width="2"/>
      <rect x="-34" y="-78" width="68" height="60" rx="14" fill="#fb923c" stroke="#0b1220" stroke-width="3"/>
      <polygon points="-13,-70 13,-70 10,-48 0,-44 -10,-48" fill="#0b1220" stroke="#0b1220" stroke-width="2"/>
      <text class="m" x="0" y="-52" text-anchor="middle" font-size="11" font-weight="bold" fill="#fbbf24">5</text>
      <rect x="-34" y="-26" width="68" height="8" fill="#c2410c" stroke="#0b1220" stroke-width="2"/>
      <rect x="-6" y="-27" width="12" height="10" rx="2" fill="#fbbf24" stroke="#0b1220" stroke-width="2"/>
      <rect x="-48" y="-68" width="14" height="34" rx="7" fill="#fb923c" stroke="#0b1220" stroke-width="2.5"/>
      <circle cx="-41" cy="-66" r="5" fill="#fdba74" stroke="#0b1220" stroke-width="2"/>
      <rect x="32" y="-71" width="34" height="13" rx="6.5" fill="#fb923c" stroke="#0b1220" stroke-width="2.5" transform="rotate(-20 32 -65)"/>
      <circle cx="38" cy="-64" r="5" fill="#fdba74" stroke="#0b1220" stroke-width="2"/>
      <rect x="-30" y="-128" width="60" height="46" rx="13" fill="#fdba74" stroke="#0b1220" stroke-width="3"/>
      <rect x="-36" y="-112" width="8" height="18" rx="3" fill="#fb923c" stroke="#0b1220" stroke-width="2"/>
      <rect x="28" y="-112" width="8" height="18" rx="3" fill="#fb923c" stroke="#0b1220" stroke-width="2"/>
      <rect x="-23" y="-118" width="46" height="22" rx="8" fill="#0b1220"/>
      <text class="m" x="-10" y="-102" text-anchor="middle" font-size="16" font-weight="bold" fill="#22d3ee">&lt;</text>
      <text class="m" x="10" y="-102" text-anchor="middle" font-size="16" font-weight="bold" fill="#22d3ee">&gt;</text>
      <circle cx="-6" cy="-90" r="1.5" fill="#0b1220"/>
      <circle cx="0" cy="-90" r="1.5" fill="#0b1220"/>
      <circle cx="6" cy="-90" r="1.5" fill="#0b1220"/>
      <line x1="0" y1="-128" x2="0" y2="-142" stroke="#0b1220" stroke-width="3"/>
      <circle cx="0" cy="-147" r="9" fill="none" stroke="#fbbf24" stroke-width="1.5" opacity="0.4"/>
      <circle cx="0" cy="-147" r="5.5" fill="#fbbf24" stroke="#0b1220" stroke-width="2"/>
    </g>
    <g id="moov2">
      <ellipse cx="0" cy="68" rx="48" ry="7" fill="#020617" opacity="0.5"/>
      <line x1="-9" y1="60" x2="-9" y2="66" stroke="#78350f" stroke-width="3.5" stroke-linecap="round"/>
      <line x1="9" y1="60" x2="9" y2="66" stroke="#78350f" stroke-width="3.5" stroke-linecap="round"/>
      <ellipse cx="0" cy="12" rx="30" ry="22" fill="#b45309" stroke="#78350f" stroke-width="3"/>
      <ellipse cx="0" cy="16" rx="17" ry="13" fill="#fde68a"/>
      <path d="M -30 18 L 30 18 L 38 52 Q 0 60 -38 52 Z" fill="#1e293b" stroke="#0b1220" stroke-width="2.5"/>
      <line x1="0" y1="22" x2="0" y2="54" stroke="#334155" stroke-width="2"/>
      <path d="M -30 2 Q -46 12 -37 28 Q -30 20 -28 6 Z" fill="#92400e" stroke="#78350f" stroke-width="2.5"/>
      <path d="M 30 -4 Q 44 -14 40 -28 Q 30 -22 26 -8 Z" fill="#92400e" stroke="#78350f" stroke-width="2.5"/>
      <line x1="40" y1="-28" x2="56" y2="-56" stroke="#b45309" stroke-width="3.5" stroke-linecap="round"/>
      <circle cx="56" cy="-56" r="3.5" fill="#fbbf24" stroke="#78350f" stroke-width="1.5"/>
      <polygon points="-9,10 0,6 0,14" fill="#f472b6" stroke="#0b1220" stroke-width="1.5"/>
      <polygon points="9,10 0,6 0,14" fill="#f472b6" stroke="#0b1220" stroke-width="1.5"/>
      <circle cx="0" cy="10" r="2.5" fill="#db2777"/>
      <circle cx="0" cy="-26" r="33" fill="#f59e0b" stroke="#78350f" stroke-width="3"/>
      <polygon points="-27,-50 0,-62 27,-50 0,-42" fill="#1e293b" stroke="#0b1220" stroke-width="2"/>
      <circle cx="0" cy="-62" r="2.5" fill="#fbbf24"/>
      <path d="M 27 -50 L 33 -34" stroke="#fbbf24" stroke-width="2"/>
      <circle cx="33" cy="-31" r="3" fill="#fbbf24"/>
      <circle cx="-12" cy="-30" r="12.5" fill="#fffbeb" stroke="#78350f" stroke-width="2"/>
      <circle cx="12" cy="-30" r="12.5" fill="#fffbeb" stroke="#78350f" stroke-width="2"/>
      <line x1="-1" y1="-30" x2="1" y2="-30" stroke="#78350f" stroke-width="2"/>
      <line x1="-24.5" y1="-30" x2="-30" y2="-32" stroke="#78350f" stroke-width="2"/>
      <line x1="24.5" y1="-30" x2="30" y2="-32" stroke="#78350f" stroke-width="2"/>
      <circle cx="-12" cy="-30" r="4.5" fill="#0b1220"/>
      <circle cx="12" cy="-30" r="4.5" fill="#0b1220"/>
      <circle cx="-13.5" cy="-32" r="1.5" fill="#ffffff"/>
      <circle cx="10.5" cy="-32" r="1.5" fill="#ffffff"/>
      <polygon points="0,-14 -6,-22 6,-22" fill="#f97316" stroke="#78350f" stroke-width="2"/>
    </g>
  </defs>

  <rect x="0" y="0" width="1200" height="840" fill="#0b1220"/>

  <!-- ===== 顶部横幅 ===== -->
  <rect x="40" y="6" width="120" height="6" rx="3" fill="#22d3ee"/>
  <rect x="40" y="16" width="120" height="6" rx="3" fill="#f472b6"/>
  <text class="t st" x="40" y="40">前端漫画实验室 · CSS3 × HTML5 漫画剧场</text>
  <text class="t bt" x="40" y="80">第 9 话 · Transform — 不惊动文档流的几何魔法</text>
  <rect x="1020" y="26" width="140" height="44" rx="22" fill="#22d3ee"/>
  <text class="m" x="1090" y="54" text-anchor="middle" font-size="19" font-weight="bold" fill="#0b1220">EP.09</text>
  <line x1="0" y1="96" x2="1200" y2="96" stroke="#1e293b" stroke-width="2"/>

  <!-- ===== 格1 · 痛点现场 ===== -->
  <rect x="40" y="120" width="556" height="250" rx="16" fill="#131c2e" stroke="#334155" stroke-width="3"/>
  <rect x="40" y="120" width="556" height="250" rx="16" fill="url(#ht)"/>
  <circle cx="66" cy="146" r="14" fill="#22d3ee"/>
  <text class="m" x="66" y="151" text-anchor="middle" font-size="15" font-weight="bold" fill="#0b1220">1</text>
  <text class="t pt" x="92" y="152">痛点现场 · 位移动画为什么卡</text>

  <rect x="64" y="168" width="400" height="30" rx="8" fill="#1e293b" stroke="#f87171" stroke-width="1.5"/>
  <text class="m" x="78" y="188" font-size="11.5" fill="#fca5a5">动画 left: 0px → 200px（每帧重排）</text>
  <rect x="64" y="206" width="104" height="28" rx="8" fill="#7f1d1d" stroke="#f87171" stroke-width="1.5"/>
  <text class="t" x="116" y="225" text-anchor="middle" font-size="12" font-weight="bold" fill="#fecaca">Layout 重排</text>
  <line x1="172" y1="220" x2="186" y2="220" stroke="#f87171" stroke-width="2"/>
  <polygon points="186,216 192,220 186,224" fill="#f87171"/>
  <rect x="190" y="206" width="104" height="28" rx="8" fill="#7f1d1d" stroke="#f87171" stroke-width="1.5"/>
  <text class="t" x="242" y="225" text-anchor="middle" font-size="12" font-weight="bold" fill="#fecaca">Paint 重绘</text>
  <line x1="298" y1="220" x2="312" y2="220" stroke="#f87171" stroke-width="2"/>
  <polygon points="312,216 318,220 312,224" fill="#f87171"/>
  <rect x="316" y="206" width="120" height="28" rx="8" fill="#7f1d1d" stroke="#f87171" stroke-width="1.5"/>
  <text class="t" x="376" y="225" text-anchor="middle" font-size="12" font-weight="bold" fill="#fecaca">Composite</text>

  <rect x="64" y="246" width="400" height="30" rx="8" fill="#1e293b" stroke="#22d3ee" stroke-width="1.5"/>
  <text class="m" x="78" y="266" font-size="11.5" fill="#67e8f9">动画 transform: translateX(200px)（GPU 合成）</text>
  <rect x="64" y="284" width="104" height="28" rx="8" fill="#1e293b" stroke="#334155" stroke-width="1.5"/>
  <text class="t" x="116" y="303" text-anchor="middle" font-size="12" fill="#475569">Layout</text>
  <rect x="190" y="284" width="104" height="28" rx="8" fill="#1e293b" stroke="#334155" stroke-width="1.5"/>
  <text class="t" x="242" y="303" text-anchor="middle" font-size="12" fill="#475569">Paint</text>
  <rect x="316" y="284" width="120" height="28" rx="8" fill="#083344" stroke="#22d3ee" stroke-width="1.5"/>
  <text class="t" x="376" y="303" text-anchor="middle" font-size="12" font-weight="bold" fill="#67e8f9">Composite 合成</text>

  <text class="t" x="64" y="326" font-size="13" font-weight="bold" fill="#f87171">同样位移 200px：一个每帧重排，一个只走合成器</text>
  <text class="t an" x="64" y="350">left/top/width 触发 Layout；transform 由合成器线程更新矩阵</text>
  <use href="#pixelv2" transform="translate(524,352) scale(0.55)"/>
  <circle cx="556" cy="272" r="12" fill="#f87171"/>
  <text class="t" x="556" y="277" text-anchor="middle" font-size="15" font-weight="bold" fill="#0b1220">!</text>

  <!-- ===== 格2 · 机制登场 ===== -->
  <rect x="616" y="120" width="544" height="250" rx="16" fill="#131c2e" stroke="#334155" stroke-width="3"/>
  <rect x="616" y="120" width="544" height="250" rx="16" fill="url(#ht)"/>
  <circle cx="642" cy="146" r="14" fill="#a78bfa"/>
  <text class="m" x="642" y="151" text-anchor="middle" font-size="15" font-weight="bold" fill="#0b1220">2</text>
  <text class="t pt" x="668" y="152">机制登场 · 顺序就是矩阵乘法</text>

  <rect x="640" y="170" width="205" height="108" rx="10" fill="#1e293b" stroke="#a78bfa" stroke-width="2"/>
  <text class="m" x="656" y="194" font-size="11.5" fill="#c4b5fd">translateX(80px)</text>
  <text class="m" x="656" y="214" font-size="11.5" fill="#c4b5fd">rotate(45deg)</text>
  <line x1="656" y1="226" x2="829" y2="226" stroke="#334155" stroke-width="1.5"/>
  <text class="t an" x="656" y="246">① 先沿原 X 轴右移</text>
  <text class="t an" x="656" y="266">② 再绕中心旋转 45°</text>

  <text class="t" x="852" y="234" text-anchor="middle" font-size="26" font-weight="bold" fill="#f472b6">≠</text>

  <rect x="863" y="170" width="205" height="108" rx="10" fill="#1e293b" stroke="#f472b6" stroke-width="2"/>
  <text class="m" x="879" y="194" font-size="11.5" fill="#f9a8d4">rotate(45deg)</text>
  <text class="m" x="879" y="214" font-size="11.5" fill="#f9a8d4">translateX(80px)</text>
  <line x1="879" y1="226" x2="1052" y2="226" stroke="#334155" stroke-width="1.5"/>
  <text class="t an" x="879" y="246">① 先旋转，X 轴被带斜</text>
  <text class="t an" x="879" y="266">② 再沿新 X 轴斜着推</text>

  <text class="t an" x="640" y="300">函数从左到右依次相乘，矩阵乘法不可交换</text>
  <text class="m" x="640" y="326" font-size="11.5" fill="#22d3ee">.box { transform-origin: 50% 50%; }</text>
  <text class="t an" x="640" y="350">translate 百分比基于自身尺寸——无宽高也能精确居中</text>
  <use href="#taggyv2" transform="translate(1105,356) scale(0.44)"/>

  <!-- ===== 格3 · 落地收束 ===== -->
  <rect x="40" y="390" width="1120" height="230" rx="16" fill="#131c2e" stroke="#334155" stroke-width="3"/>
  <rect x="40" y="390" width="1120" height="230" rx="16" fill="url(#ht)"/>
  <circle cx="66" cy="416" r="14" fill="#fbbf24"/>
  <text class="m" x="66" y="421" text-anchor="middle" font-size="15" font-weight="bold" fill="#0b1220">3</text>
  <text class="t pt" x="92" y="422">落地收束 · 3D 翻转卡三件套</text>

  <rect x="84" y="436" width="200" height="142" rx="14" fill="none" stroke="#334155" stroke-width="1.5" stroke-dasharray="6 5"/>
  <path d="M 112 442 Q 175 420 246 440" stroke="#f472b6" stroke-width="2.5" fill="none" stroke-linecap="round"/>
  <polygon points="246,433 262,442 244,448" fill="#f472b6"/>
  <text class="m" x="176" y="430" text-anchor="middle" font-size="11" fill="#f472b6">rotateY 180°</text>
  <polygon points="232,452 254,458 254,538 232,544" fill="#f472b6" stroke="#0b1220" stroke-width="2"/>
  <polygon points="108,462 232,446 232,544 108,560" fill="#1e293b" stroke="#22d3ee" stroke-width="2.5" stroke-linejoin="round"/>
  <text class="t" x="170" y="500" text-anchor="middle" font-size="16" font-weight="bold" fill="#22d3ee">正面</text>
  <text class="m" x="170" y="522" text-anchor="middle" font-size="9.5" fill="#94a3b8">rotateY(0)</text>
  <text class="m" x="184" y="598" text-anchor="middle" font-size="11" fill="#22d3ee">perspective: 900px（舞台）</text>

  <rect x="400" y="440" width="225" height="140" rx="12" fill="#1e293b" stroke="#334155" stroke-width="2"/>
  <circle cx="426" cy="466" r="13" fill="#22d3ee"/>
  <text class="m" x="426" y="471" text-anchor="middle" font-size="13" font-weight="bold" fill="#0b1220">1</text>
  <text class="t" x="448" y="471" font-size="15" font-weight="bold" fill="#f8fafc">舞台 · perspective</text>
  <rect x="414" y="486" width="197" height="30" rx="6" fill="#0b1220"/>
  <text class="m" x="424" y="506" font-size="10.5" fill="#22d3ee">perspective: 900px;</text>
  <text class="t an" x="414" y="538" font-size="11.5">写在父元素，全部子面</text>
  <text class="t an" x="414" y="558" font-size="11.5">共享一个灭点，不散架</text>
  <line x1="631" y1="510" x2="642" y2="510" stroke="#94a3b8" stroke-width="2"/>
  <polygon points="642,506 648,510 642,514" fill="#94a3b8"/>

  <rect x="648" y="440" width="225" height="140" rx="12" fill="#1e293b" stroke="#334155" stroke-width="2"/>
  <circle cx="674" cy="466" r="13" fill="#a78bfa"/>
  <text class="m" x="674" y="471" text-anchor="middle" font-size="13" font-weight="bold" fill="#0b1220">2</text>
  <text class="t" x="696" y="471" font-size="15" font-weight="bold" fill="#f8fafc">中层 · preserve-3d</text>
  <rect x="662" y="486" width="197" height="30" rx="6" fill="#0b1220"/>
  <text class="m" x="672" y="506" font-size="10.5" fill="#c4b5fd">transform-style: preserve-3d;</text>
  <text class="t an" x="662" y="538" font-size="11.5">默认 flat 把子元素</text>
  <text class="t an" x="662" y="558" font-size="11.5">拍到同一平面上</text>
  <line x1="879" y1="510" x2="890" y2="510" stroke="#94a3b8" stroke-width="2"/>
  <polygon points="890,506 896,510 890,514" fill="#94a3b8"/>

  <rect x="896" y="440" width="240" height="140" rx="12" fill="#1e293b" stroke="#334155" stroke-width="2"/>
  <circle cx="922" cy="466" r="13" fill="#f472b6"/>
  <text class="m" x="922" y="471" text-anchor="middle" font-size="13" font-weight="bold" fill="#0b1220">3</text>
  <text class="t" x="944" y="471" font-size="15" font-weight="bold" fill="#f8fafc">面 · 藏起背面</text>
  <rect x="910" y="486" width="212" height="30" rx="6" fill="#0b1220"/>
  <text class="m" x="920" y="506" font-size="10.5" fill="#f9a8d4">backface-visibility: hidden;</text>
  <text class="t an" x="910" y="538" font-size="11.5">背面先 rotateY(180deg) 预翻</text>
  <text class="t an" x="910" y="558" font-size="11.5">翻过去正面隐、背面显</text>

  <text class="t an" x="400" y="604">坑：overflow:hidden、filter、opacity&lt;1 会强制打平 preserve-3d——3D 失效先查这批</text>

  <!-- ===== 知识条 ===== -->
  <rect x="40" y="640" width="1120" height="152" rx="16" fill="#fbbf24" stroke="#78350f" stroke-width="3"/>
  <use href="#moov2" transform="translate(150,744) scale(0.62)"/>
  <text class="t kt" x="230" y="676">码叔划重点</text>
  <circle cx="248" cy="703" r="4" fill="#b45309"/>
  <text class="t kb" x="266" y="708">transform 不碰文档流：位移后仍占原位，动画只走合成器，主线程卡顿也不掉帧</text>
  <circle cx="248" cy="731" r="4" fill="#b45309"/>
  <text class="t kb" x="266" y="736">函数从左到右依次相乘、顺序敏感；拼 3D 口诀：先转正、再推出</text>
  <circle cx="248" cy="759" r="4" fill="#b45309"/>
  <text class="t kb" x="266" y="764">三件套：父 perspective、中 preserve-3d、面 backface:hidden；overflow:hidden 会打平</text>
  <rect x="1000" y="700" width="140" height="32" rx="16" fill="none" stroke="#b45309" stroke-width="1.5"/>
  <text class="t" x="1070" y="721" text-anchor="middle" font-size="13" font-weight="bold" fill="#b45309">EP.09 · Transform</text>

  <text class="t ft" x="40" y="822">霓虹墨 Neon Ink · 第 9 话 — 深入阅读 docs/css/09-transform.md · 示例 examples/css/09-transform</text>
</svg>
